<?xml version="1.0" ?><!DOCTYPE svg  PUBLIC '-//W3C//DTD SVG 1.1//EN'  'http://www.w3.org/Graphics/SVG/1.1/DTD/svg11.dtd'><svg enable-background="new 0 0 24 24" height="24px" id="Layer_1" version="1.1" viewBox="0 0 24 24" width="24px" xml:space="preserve" xmlns="http://www.w3.org/2000/svg" xmlns:xlink="http://www.w3.org/1999/xlink"><g><path d="M12,0C5.4,0,0,5.4,0,12s5.4,12,12,12s12-5.4,12-12S18.6,0,12,0z M12,22C6.5,22,2,17.5,2,12S6.5,2,12,2s10,4.5,10,10   S17.5,22,12,22z"/><path d="M12,7c1.1,0,2,0.9,2,2h2c0-2.2-1.8-4-4-4S8,6.8,8,9v2H6v2h2v5h2h6v-2h-6v-3h2v-2h-2V9C10,7.9,10.9,7,12,7z"/></g></svg>